<?xml version="1.0" standalone="no"?>
<!DOCTYPE svg PUBLIC "-//W3C//DTD SVG 20010904//EN"
 "http://www.w3.org/TR/2001/REC-SVG-20010904/DTD/svg10.dtd">
<svg version="1.0" xmlns="http://www.w3.org/2000/svg"
 width="267.000000pt" height="267.000000pt" viewBox="0 0 267.000000 267.000000"
 preserveAspectRatio="xMidYMid meet">
<metadata>
Created by potrace 1.14, written by Peter Selinger 2001-2017
</metadata>
<g transform="translate(0.000000,267.000000) scale(0.100000,-0.100000)"
fill="#000000" stroke="none">
<path d="M1317 2264 c-1 -2 -43 -4 -92 -5 -156 -3 -255 -41 -401 -152 -100
-76 -160 -159 -197 -272 -33 -102 -38 -188 -42 -740 -3 -481 -2 -500 47 -526
24 -13 68 -6 101 15 20 13 26 14 30 4 4 -8 6 -7 6 5 1 10 13 22 27 27 33 13
37 13 28 -2 -5 -7 -3 -8 7 -2 31 19 98 -12 106 -49 1 -6 7 -32 14 -57 6 -25
12 -49 13 -55 10 -49 53 -74 96 -56 32 12 110 89 110 107 0 14 74 94 86 94 8
0 14 5 14 10 0 6 9 10 19 10 19 0 81 -65 81 -85 0 -5 12 -33 26 -61 18 -36 36
-55 60 -66 19 -9 37 -12 40 -7 3 5 9 7 13 5 4 -3 18 8 30 25 12 16 27 27 33
23 7 -4 8 -3 4 4 -7 12 71 127 94 137 8 4 36 9 62 11 45 4 48 2 102 -52 48
-48 61 -55 88 -52 27 2 37 10 53 43 19 39 20 60 20 595 -1 305 -4 571 -7 590
-13 74 -37 125 -124 255 -73 110 -80 119 -164 186 -61 49 -77 56 -162 75 -65
13 -213 26 -221 18z"/>
</g>
</svg>
